<svg xmlns="http://www.w3.org/2000/svg" viewBox="40 256 432 216" role="img" aria-label="Andropid">
  <defs>
    <mask id="erode" maskUnits="userSpaceOnUse" x="0" y="0" width="512" height="512">
      <path d="M 40 256 A 216 216 0 0 0 472 256 Z" fill="#fff"/>
      <g fill="#000">
        <circle cx="197.3" cy="411.0" r="3.83"/>
        <circle cx="95.6" cy="328.7" r="4.60"/>
        <circle cx="124.2" cy="309.7" r="3.71"/>
        <circle cx="194.6" cy="460.4" r="3.26"/>
        <circle cx="180.6" cy="358.2" r="3.41"/>
        <circle cx="173.4" cy="436.7" r="3.26"/>
        <circle cx="148.9" cy="349.6" r="3.13"/>
        <circle cx="141.1" cy="423.2" r="3.95"/>
        <circle cx="259.0" cy="357.9" r="3.70"/>
        <circle cx="175.9" cy="352.3" r="2.65"/>
        <circle cx="150.5" cy="281.7" r="2.33"/>
        <circle cx="161.4" cy="380.1" r="3.12"/>
        <circle cx="221.3" cy="394.1" r="3.11"/>
        <circle cx="112.3" cy="360.9" r="3.46"/>
        <circle cx="161.2" cy="430.8" r="4.68"/>
        <circle cx="76.1" cy="356.5" r="4.63"/>
        <circle cx="61.3" cy="331.3" r="2.39"/>
        <circle cx="83.4" cy="376.2" r="3.75"/>
        <circle cx="88.4" cy="292.2" r="3.71"/>
        <circle cx="114.7" cy="359.4" r="2.63"/>
        <circle cx="226.4" cy="368.6" r="2.74"/>
        <circle cx="57.7" cy="307.3" r="3.73"/>
        <circle cx="137.1" cy="403.5" r="3.03"/>
        <circle cx="118.3" cy="355.8" r="3.19"/>
        <circle cx="193.8" cy="291.0" r="3.83"/>
        <circle cx="78.7" cy="345.9" r="4.39"/>
        <circle cx="200.7" cy="408.1" r="2.97"/>
        <circle cx="66.5" cy="307.2" r="3.52"/>
        <circle cx="150.1" cy="414.9" r="2.36"/>
        <circle cx="160.4" cy="449.6" r="2.48"/>
        <circle cx="74.9" cy="256.1" r="2.32"/>
        <circle cx="219.7" cy="372.8" r="3.38"/>
        <circle cx="219.4" cy="456.9" r="2.64"/>
        <circle cx="135.2" cy="325.9" r="2.29"/>
        <circle cx="249.5" cy="443.3" r="3.66"/>
        <circle cx="85.4" cy="364.6" r="4.77"/>
        <circle cx="85.8" cy="351.3" r="2.87"/>
        <circle cx="83.5" cy="345.0" r="2.47"/>
        <circle cx="126.7" cy="363.7" r="2.39"/>
        <circle cx="229.0" cy="387.3" r="3.30"/>
        <circle cx="189.2" cy="441.8" r="2.87"/>
        <circle cx="190.5" cy="411.8" r="3.55"/>
        <circle cx="138.3" cy="357.4" r="2.58"/>
        <circle cx="182.7" cy="434.6" r="2.43"/>
        <circle cx="52.4" cy="312.5" r="3.86"/>
        <circle cx="198.3" cy="430.9" r="2.90"/>
        <circle cx="101.6" cy="345.3" r="3.95"/>
        <circle cx="70.7" cy="285.4" r="2.94"/>
        <circle cx="108.3" cy="342.4" r="3.53"/>
        <circle cx="252.2" cy="466.9" r="3.41"/>
        <circle cx="63.3" cy="353.6" r="4.19"/>
        <circle cx="65.3" cy="268.6" r="4.26"/>
        <circle cx="68.2" cy="361.5" r="4.19"/>
        <circle cx="54.4" cy="310.7" r="4.29"/>
        <circle cx="68.0" cy="286.8" r="2.83"/>
        <circle cx="109.9" cy="286.1" r="4.19"/>
        <circle cx="71.7" cy="270.4" r="2.62"/>
        <circle cx="159.8" cy="383.6" r="2.43"/>
        <circle cx="191.5" cy="335.1" r="2.46"/>
        <circle cx="178.3" cy="369.4" r="3.43"/>
        <circle cx="104.6" cy="395.1" r="3.29"/>
        <circle cx="207.3" cy="431.4" r="3.91"/>
        <circle cx="160.5" cy="449.4" r="3.39"/>
        <circle cx="140.7" cy="269.9" r="3.94"/>
        <circle cx="179.3" cy="451.5" r="2.75"/>
        <circle cx="126.4" cy="349.2" r="3.69"/>
        <circle cx="203.8" cy="447.4" r="2.43"/>
        <circle cx="105.9" cy="267.6" r="2.57"/>
        <circle cx="247.2" cy="367.6" r="3.78"/>
        <circle cx="100.2" cy="335.9" r="3.61"/>
        <circle cx="204.1" cy="439.5" r="3.10"/>
        <circle cx="49.0" cy="311.5" r="2.43"/>
        <circle cx="150.5" cy="404.2" r="3.25"/>
        <circle cx="127.9" cy="425.1" r="3.39"/>
        <circle cx="140.6" cy="333.4" r="3.55"/>
        <circle cx="131.3" cy="426.1" r="4.45"/>
        <circle cx="197.3" cy="378.0" r="4.03"/>
        <circle cx="109.5" cy="379.0" r="4.82"/>
        <circle cx="146.5" cy="421.2" r="2.51"/>
        <circle cx="218.1" cy="438.2" r="4.37"/>
        <circle cx="198.9" cy="422.4" r="4.20"/>
        <circle cx="55.9" cy="263.1" r="2.33"/>
        <circle cx="70.5" cy="321.2" r="2.52"/>
        <circle cx="252.9" cy="385.0" r="3.35"/>
        <circle cx="289.5" cy="457.7" r="2.48"/>
        <circle cx="183.4" cy="347.5" r="3.21"/>
        <circle cx="204.1" cy="350.3" r="7.44"/>
        <circle cx="207.1" cy="373.1" r="5.68"/>
        <circle cx="84.0" cy="283.9" r="7.65"/>
        <circle cx="150.9" cy="344.4" r="8.09"/>
        <circle cx="160.0" cy="364.4" r="7.12"/>
        <circle cx="221.3" cy="445.0" r="6.61"/>
        <circle cx="60.2" cy="295.9" r="5.51"/>
        <circle cx="96.6" cy="372.8" r="8.45"/>
        <circle cx="109.2" cy="389.2" r="5.46"/>
        <circle cx="80.9" cy="333.9" r="5.72"/>
        <circle cx="104.4" cy="403.1" r="5.93"/>
        <circle cx="58.0" cy="329.8" r="5.31"/>
        <circle cx="128.4" cy="419.8" r="7.33"/>
        <circle cx="127.8" cy="351.3" r="5.37"/>
        <circle cx="125.3" cy="409.9" r="6.93"/>
        <circle cx="210.1" cy="426.6" r="7.55"/>
        <circle cx="87.9" cy="367.9" r="5.99"/>
        <circle cx="102.8" cy="258.0" r="7.33"/>
        <circle cx="120.2" cy="339.2" r="7.00"/>
        <circle cx="54.3" cy="277.6" r="6.16"/>
      </g>
    </mask>
  </defs>
  <path d="M 40 256 A 216 216 0 0 0 472 256 Z" fill="currentColor" mask="url(#erode)"/>
</svg>
